HIERARCHY
ROOT Hips
{
     OFFSET 1.88212 96.90440 -13.34250
     CHANNELS 6 Xposition Yposition Zposition Zrotation Xrotation Yrotation
     JOINT Spine
     {
          OFFSET 0.00000 11.89050 0.00000
          CHANNELS 3 Zrotation Xrotation Yrotation
          JOINT Spine1
          {
               OFFSET -0.00000 25.65740 0.12766
               CHANNELS 3 Zrotation Xrotation Yrotation
               JOINT HEad
               {
                    OFFSET 0.00000 8.73416 0.01134
                    CHANNELS 3 Zrotation Xrotation Yrotation
                    End Site
                    {
                         OFFSET -0.29000 12.77420 2.51395
                    }
               }
               JOINT LeftShoulder1
               {
                    OFFSET 8.99000 -0.36225 -0.22000
                    CHANNELS 3 Zrotation Xrotation Yrotation
                    JOINT LeftArm
                    {
                         OFFSET 10.28270 -0.00338 0.32212
                         CHANNELS 3 Zrotation Xrotation Yrotation
                         JOINT LeftForeArm
                         {
                              OFFSET 32.76690 0.09914 -1.42434
                              CHANNELS 3 Zrotation Xrotation Yrotation
                              JOINT LeftHand
                              {
                                   OFFSET 27.56430 0.08536 1.02216
                                   CHANNELS 3 Zrotation Xrotation Yrotation
                                   End Site
                                   {
                                        OFFSET 16.74430 -0.60000 1.50291
                                   }
                              }
                         }
                    }
               }
               JOINT RightShoulder
               {
                    OFFSET -8.99000 -0.36225 -0.22000
                    CHANNELS 3 Zrotation Xrotation Yrotation
                    JOINT RightArm
                    {
                         OFFSET -10.28270 -0.00338 0.32212
                         CHANNELS 3 Zrotation Xrotation Yrotation
                         JOINT RightForeArm
                         {
                              OFFSET -32.89710 0.09914 -1.42434
                              CHANNELS 3 Zrotation Xrotation Yrotation
                              JOINT RightHand
                              {
                                   OFFSET -27.49210 0.08536 1.02216
                                   CHANNELS 3 Zrotation Xrotation Yrotation
                                   End Site
                                   {
                                        OFFSET -16.63120 -0.60000 1.50291
                                   }
                              }
                         }
                    }
               }
          }
     }
     JOINT LeftUpLeg
     {
          OFFSET 8.94580 -8.66707 0.10165
          CHANNELS 3 Zrotation Xrotation Yrotation
          JOINT LeftLeg
          {
               OFFSET 0.00000 -44.42270 1.37270
               CHANNELS 3 Zrotation Xrotation Yrotation
               JOINT LeftFoot
               {
                    OFFSET -0.25355 -42.09240 -1.46059
                    CHANNELS 3 Zrotation Xrotation Yrotation
                    JOINT LeftToes
                    {
                         OFFSET -0.04000 -4.41509 8.49910
                         CHANNELS 3 Zrotation Xrotation Yrotation
                         End Site
                         {
                              OFFSET 0.08000 -0.04745 9.77979
                         }
                    }
               }
          }
     }
     JOINT RightUpLeg
     {
          OFFSET -8.94580 -8.66707 0.10165
          CHANNELS 3 Zrotation Xrotation Yrotation
          JOINT RightLeg
          {
               OFFSET 0.00000 -44.42270 1.37270
               CHANNELS 3 Zrotation Xrotation Yrotation
               JOINT RightFoot
               {
                    OFFSET 0.25355 -42.09240 -1.46059
                    CHANNELS 3 Zrotation Xrotation Yrotation
                    JOINT RightToes
                    {
                         OFFSET 0.04000 -4.41509 8.49910
                         CHANNELS 3 Zrotation Xrotation Yrotation
                         End Site
                         {
                              OFFSET -0.08000 -0.13745 9.77979
                         }
                    }
               }
          }
     }
}
MOTION
Frames: 20
Frame Time: 0.01667
-6.90102 52.90450 -116.93300 16.42619 -0.41913 -5.81890 -18.10979 22.32715 5.10986 -0.09965 0.02443 0.06234 -11.92265 -22.27502 38.47001 -12.52202 5.21672 8.44645 -173.52443 -72.95850 -148.84685 -53.90501 58.72757 -89.08543 26.52205 20.93409 -10.93160 -4.80117 6.51825 17.33146 74.09986 -16.53144 88.16776 23.96231 34.89151 92.49092 -1.87853 9.92468 1.84285 36.71540 -31.37288 8.51926 -2.97745 60.27090 17.13017 -30.22766 0.12601 -0.04794 -1.68354 -3.46749 -2.73483 -41.24892 -52.30283 -25.74439 -202.57988 63.44870 204.39833 9.24395 -0.74664 0.16881 -33.61004 -90.00000 0.00000 
-9.88231 56.64454 -114.27207 15.88174 0.13954 -2.35001 -18.84383 19.33956 5.85364 -0.08313 0.03924 0.05813 -12.64134 -18.16576 36.90255 -9.89252 8.38253 6.13930 -171.98018 -71.59380 -147.79720 -52.99208 58.78895 -88.97821 12.94376 12.37709 -8.69312 -1.36206 9.66280 14.59147 72.98635 -17.06979 88.58289 23.84266 34.80245 92.75828 -4.61206 8.56718 -0.65840 35.84588 -30.38013 10.22866 -12.41066 58.83400 22.44713 -30.04832 0.06679 -0.00161 -13.84231 -1.80514 2.43009 -35.49212 -44.68556 -26.24977 -200.58861 70.90127 208.48581 20.51629 -0.75295 0.44882 -3.71508 -78.59959 44.54336 
-13.10721 60.56573 -111.40546 14.67847 0.74614 2.66501 -19.20988 17.13294 6.24990 -0.05581 0.04813 0.06197 -12.57586 -13.98425 34.19882 -6.21304 11.01560 2.97385 -168.80096 -70.25497 -144.92099 -52.26480 58.62735 -88.72871 20.63626 17.32420 -8.05551 3.65659 12.17129 10.75227 71.41544 -17.88558 88.26009 23.68477 35.07976 93.50931 -3.54698 8.86314 1.54358 35.45106 -30.58204 11.69416 -17.63164 56.59815 22.55895 -30.06573 0.03901 -0.01103 -17.07243 -9.62518 1.00479 -29.75538 -37.01873 -28.04310 -197.86307 78.47159 211.71916 32.01701 -0.68946 0.63908 -48.98771 -63.83689 5.34389 
-16.31052 64.30901 -108.54413 12.75521 1.17746 8.99278 -18.20257 15.58545 5.09622 0.02149 0.03342 -0.02894 -12.43485 -9.84162 31.63911 -2.92655 13.24147 -0.10308 -165.44499 -68.86482 -141.75813 -51.54842 58.62331 -88.54039 12.30910 12.21861 -6.75781 8.45620 14.11431 6.90175 69.85982 -18.69732 87.50959 23.46409 35.59488 94.59460 -5.36591 8.06463 0.03837 34.87130 -32.21850 12.58631 -26.61906 55.24949 24.73215 -30.04876 0.03088 -0.00710 -21.58822 -10.20404 -4.25736 -23.59424 -29.93179 -30.69899 -341.49762 90.00000 360.00000 15.12777 0.86131 -0.60250 -26.93389 -53.34311 -0.97508 
-19.53033 67.82710 -105.74755 9.95643 1.20440 16.26222 -15.78723 14.68131 2.36638 0.02871 0.03020 -0.03156 -12.16354 -6.11538 29.34473 -0.01659 14.85170 -2.81160 -162.25526 -67.48975 -138.70352 -50.94715 58.48939 -88.37255 16.38715 15.15858 -5.92583 12.92381 15.32160 3.36746 68.37521 -19.40533 86.45975 23.10933 36.33881 96.02137 -5.01598 8.34873 1.36338 33.76797 -35.09525 12.75190 -38.00190 54.84264 28.54220 -30.02449 0.01865 -0.01407 -23.23060 -15.47422 -8.47244 -16.42067 -24.14192 -33.69609 -387.33124 84.95756 408.92303 -1.08860 1.08910 -0.20364 -8.39426 -40.31120 -7.64875 
-22.90196 71.14167 -103.00636 7.55967 0.89189 22.55405 -13.69891 13.91031 0.04628 0.02881 0.02813 -0.02843 -11.84665 -2.83732 27.32335 2.47200 15.97763 -4.94031 -159.12968 -66.10278 -135.60683 -50.36343 58.40588 -88.34601 11.21085 12.24043 -4.93579 16.81676 16.00509 0.52397 67.09537 -20.15135 85.23512 22.67920 37.16039 97.57857 -6.24048 7.70407 0.44560 32.44773 -37.06647 14.10451 -41.98345 55.08083 25.84145 -30.01632 0.00040 0.02614 -9.54457 -15.10007 -8.70532 -9.93006 -20.14177 -35.48260 -389.30386 75.74282 409.93747 -3.94201 0.05980 -0.13181 -15.09895 -27.36883 -15.70262 
-26.07210 74.08147 -100.49937 5.48726 0.36346 27.89630 -11.80402 13.26600 -1.85949 0.02605 0.02615 -0.02693 -11.51636 -0.02077 25.53754 4.53031 16.69961 -6.71654 -156.65170 -64.81667 -133.17502 -49.90549 58.17241 -88.30679 13.37041 13.88648 -4.20487 20.02340 16.25687 -1.81477 66.12416 -20.69274 84.01920 22.18149 38.03054 99.12294 -6.12736 8.12201 1.06532 31.38371 -38.04050 16.73544 -35.72512 56.50603 14.66568 -30.02905 -0.00032 0.02490 -9.01438 -14.44885 -8.25937 -4.83684 -17.34941 -36.09090 -393.60452 66.53058 409.14069 -3.54292 -0.05865 -0.11827 -2.55960 -31.80248 -14.77783 
-28.98190 76.62927 -98.24910 3.70667 -0.28296 32.31190 -10.04837 12.74286 -3.33841 0.02304 0.02442 -0.02528 -11.20256 2.33212 23.95558 6.13920 17.08722 -8.18115 -154.76933 -63.64209 -131.37708 -49.52610 57.91947 -88.25713 10.12368 12.06969 -3.47644 22.52508 16.19862 -3.63034 65.47196 -21.06190 82.92705 21.67984 38.83960 100.46346 -6.85328 7.90882 0.33933 30.37572 -38.32487 20.31576 -22.22054 56.69808 -2.71542 -30.01989 -0.00102 0.01630 -6.55565 -11.93298 -6.95950 -1.36445 -15.17079 -35.44325 -398.54285 58.18547 406.11212 -2.33249 -0.02661 -0.07899 -10.78667 -21.30466 -17.33484 
-31.87032 78.66441 -96.17386 2.13031 -0.99871 35.84750 -8.36496 12.33640 -4.38845 0.02118 0.02298 -0.02298 -10.90567 4.22724 22.56000 7.26211 17.23937 -9.27990 -153.37384 -62.50772 -130.21977 -49.20885 57.57964 -88.15919 11.32668 13.16009 -3.02918 24.33654 15.98513 -4.86842 65.19691 -21.33061 82.03664 21.20693 39.56767 101.52505 -6.89135 8.23024 0.67436 29.17532 -38.32387 24.34673 -6.38441 53.90862 -21.70257 -30.01128 -0.00244 0.00948 9.09605 -4.59845 -4.46553 0.58660 -13.07496 -33.61388 -403.39508 50.15789 401.81458 -0.79369 -0.00556 -0.05417 -11.00911 -20.27669 -26.23763 
-34.66371 80.23454 -94.36992 0.70355 -1.72519 38.58076 -6.74814 12.03478 -5.05097 0.01797 0.02109 -0.02156 -10.61762 5.68695 21.33800 7.90265 17.18042 -10.12297 -152.41516 -61.46479 -129.67175 -48.86594 57.22870 -88.03423 9.36074 11.95861 -2.48274 25.57504 15.62921 -5.69226 65.20753 -21.41792 81.35786 20.78068 40.20109 102.30167 -7.18990 8.27202 0.19759 26.81663 -38.47653 27.80431 3.22656 48.88350 -34.30497 -18.59027 0.14962 -0.27933 -7.98601 -4.52176 -2.20596 1.20166 -10.65091 -30.70065 -407.69571 42.32613 396.51877 4.68131 0.19000 -0.15999 4.56741 -16.80565 -15.06889 
-37.48631 81.28790 -92.85692 -0.58992 -2.39529 40.61088 -5.25370 11.84019 -5.38349 0.01452 0.01907 -0.02010 -10.32661 6.73847 20.27575 8.09705 16.94484 -10.71107 -151.69789 -60.49431 -129.56332 -48.46529 56.80367 -87.86439 10.04554 12.46993 -2.20620 26.29642 15.17734 -6.14158 65.47803 -21.34941 80.88146 20.39499 40.75639 102.84366 -7.09534 8.59069 0.40131 23.76617 -38.94152 30.52494 12.17565 43.32983 -44.95364 -7.74922 0.10567 -0.19373 -0.55977 1.33608 0.18217 0.67430 -7.70527 -26.79955 -410.56378 34.66359 389.83356 12.28567 0.24921 -0.39880 8.27987 -10.29152 -14.20999 
-40.66121 81.48985 -91.56313 -1.70657 -2.96773 42.05605 -4.00070 11.79816 -5.43942 0.01204 0.01631 -0.01830 -10.00638 7.43553 19.35424 7.67095 16.59995 -10.97955 -150.75677 -59.53788 -129.63777 -47.76017 56.39177 -87.79282 9.00892 11.87900 -1.81395 26.39605 14.70817 -6.20002 66.15934 -21.17123 80.60545 20.07603 41.27037 103.21723 -7.02552 8.59912 0.23622 20.75341 -40.08867 32.42042 20.63848 37.49641 -53.55804 2.13850 0.05479 -0.09738 -21.32575 -0.64466 -0.13393 -1.01221 -4.33229 -22.04162 -410.92780 29.03380 383.00858 21.82228 0.08632 -0.54958 11.23550 -4.53362 -12.24870 
-43.75239 81.14809 -90.58519 -2.60853 -3.40548 43.02244 -3.02896 11.92434 -5.28527 0.00923 0.01419 -0.01641 -9.67819 7.82834 18.56076 7.05453 16.11234 -11.02903 -149.78127 -58.57499 -129.72705 -46.79406 55.87673 -87.77908 9.33425 12.00748 -1.65132 26.12722 14.18579 -5.98681 67.00276 -20.91127 80.52345 19.89188 41.69957 103.40134 -6.94066 8.87704 0.38371 17.24216 -41.73219 32.82506 26.91064 33.70372 -58.82857 -6.96505 -0.03325 0.01858 -8.39997 -0.09533 1.24584 -3.04758 -1.04735 -16.46954 -407.09555 27.92072 374.44684 27.09019 0.01539 -0.22625 9.96568 -1.62451 -13.01718 
-46.73759 80.29206 -89.86040 -3.26807 -3.71833 43.60474 -2.32363 12.22983 -4.98168 0.00666 0.01219 -0.01452 -9.37799 7.98107 17.88590 6.36917 15.48893 -10.89106 -148.73936 -57.60557 -129.72894 -45.63041 55.27498 -87.78664 8.49525 11.51015 -1.42811 25.49410 13.62980 -5.56064 67.99953 -20.59782 80.67111 19.91258 42.00150 103.35248 -6.82822 8.96507 0.31823 13.74417 -43.71814 31.95312 33.21741 30.36098 -62.48507 -16.33913 -0.02689 -0.03307 -2.76146 -2.25594 0.95445 -5.87510 1.79588 -10.39529 -401.30334 26.25316 365.82300 32.27979 -0.09935 -0.19424 7.19540 -14.36843 -11.18377 
-49.84464 78.93967 -89.23496 -3.64117 -3.94125 43.84999 -1.88569 12.72453 -4.53590 0.00599 0.00925 -0.01295 -9.14722 7.97964 17.32961 5.57985 14.76001 -10.52644 -147.46538 -56.66972 -129.50180 -44.29409 54.63212 -87.88098 8.46987 11.53407 -1.30150 24.42746 13.06059 -4.98581 69.20197 -20.23371 81.05766 20.18901 42.16427 103.12067 -6.60808 9.15908 0.52603 10.99098 -45.96252 30.40022 39.73150 27.17916 -65.37781 -26.97314 0.01840 -0.09364 5.37040 -4.29592 0.87677 -9.74458 3.72014 -4.28924 -392.04309 26.33255 358.27847 30.60417 0.03891 0.02157 0.48734 -22.63021 -9.78106 
-52.73357 77.53056 -88.75278 -3.76698 -4.15245 43.80720 -1.61252 13.39790 -3.98063 0.00393 0.00761 -0.01172 -9.01774 7.88378 16.89548 4.80511 13.97701 -10.05219 -146.23027 -55.81765 -129.17999 -42.93082 53.95174 -88.00179 7.83790 10.98677 -1.06090 23.19195 12.48527 -4.37062 70.35288 -19.84978 81.64843 20.69192 42.17988 102.69339 -6.41947 9.33051 0.28613 8.91445 -48.07555 28.21404 45.60375 24.75604 -67.31340 -37.89541 0.06765 -0.10547 11.94463 -6.85322 0.08912 -13.90690 4.13768 1.23236 -380.30933 28.01892 351.71851 27.75394 0.02065 -0.01189 -0.38796 -35.88258 -2.53200 
-55.39074 76.30651 -88.35146 -3.69417 -4.43532 43.52391 -1.39567 14.23859 -3.35145 0.00254 0.00611 -0.01065 -9.01935 7.75164 16.58872 4.02183 13.17427 -9.50484 -145.09492 -55.11816 -128.78117 -41.64809 53.29177 -88.15247 7.62617 10.78366 -0.91025 21.87952 11.90870 -3.74117 71.35418 -19.47531 82.34061 21.34254 42.06214 102.13783 -6.21423 9.52763 0.24293 7.48657 -49.75695 25.44899 49.53679 25.45952 -67.90359 -30.52706 -0.04381 0.05782 3.27986 -9.02759 -0.75203 -18.04314 3.08601 5.62935 -367.41772 30.49727 346.12119 22.71399 0.01238 -0.10369 -2.56996 -34.11253 -6.88844 
-57.96684 75.55136 -87.91923 -3.45031 -4.81899 43.01920 -1.19181 15.20838 -2.65812 0.00304 0.00349 -0.01006 -9.18212 7.65843 16.43606 3.26377 12.29574 -8.90090 -144.11301 -54.75829 -128.14211 -40.52843 52.75214 -88.41695 7.07627 10.22466 -0.51489 20.62182 11.24911 -3.13604 72.02668 -19.12657 82.89506 22.08794 41.78841 101.54038 -6.08591 9.67550 -0.15654 6.64536 -50.64733 22.17277 52.39109 26.56617 -67.42338 -23.13757 -0.03137 0.06355 -5.54386 -11.08546 -1.57426 -21.76560 1.01500 8.60448 -356.02676 33.03471 341.54871 18.99299 -0.01128 -0.08394 -6.54647 -55.39468 1.41596 
-60.33737 75.15087 -87.49738 -3.07757 -5.29347 42.31504 -0.98658 16.25459 -1.91108 0.00245 0.00240 -0.00911 -9.49701 7.63536 16.43544 2.50393 11.42709 -8.26655 -143.31221 -54.70811 -127.35702 -39.59198 52.31190 -88.76172 6.86082 10.03139 -0.29187 19.48362 10.58858 -2.54439 72.37783 -18.85479 83.26297 22.82626 41.44243 100.96268 -5.92018 9.81747 -0.40363 6.35751 -50.61085 18.46623 53.83491 28.19785 -65.69841 -15.44698 -0.01578 0.04435 -14.33211 -12.51954 -2.02587 -24.94680 -1.52993 10.20425 -345.86371 35.68171 337.77036 15.23472 -0.02543 -0.08331 -6.48726 -48.33214 -3.71633 
-62.55515 75.06598 -87.05846 -2.59982 -5.81584 41.43951 -0.80735 17.32101 -1.12359 0.00173 0.00167 -0.00806 -9.94545 7.70259 16.58172 1.75855 10.57803 -7.62332 -142.69299 -54.96804 -126.45878 -38.83942 51.96041 -89.16457 6.46952 9.68703 0.00227 18.48962 9.93701 -1.94731 72.42676 -18.65980 83.35711 23.48762 41.06450 100.44851 -5.87779 9.90167 -0.76718 6.60165 -49.62160 14.42166 53.65524 30.29439 -62.55145 -7.40535 -0.00494 0.01608 -22.99981 -13.39122 -2.17182 -27.53150 -4.06031 10.56011 -337.12790 38.24999 334.82501 11.86792 -0.03248 -0.06717 -8.08910 -54.78457 -2.42948 
